<svg viewBox="-40 320 3279.9999999999995 1800.0000000000002" xmlns="http://www.w3.org/2000/svg" xmlns:xlink="http://www.w3.org/1999/xlink" xmlns:blush="http://design.blush" overflow="visible" width="3279.9999999999995px" height="1800.0000000000002px"><defs><polygon id="masterscenesteamwork-path-1" points="0.354636271 0.4782 167.3115 0.4782 167.3115 15 0.354636271 15"/></defs><g id="Master/Scenes/Teamwork" stroke="none" stroke-width="1" fill="none" fill-rule="evenodd" blush:viewBox="144 344 3071.999999999999 1728.0000000000002" blush:i="0"><g id="Background" transform="translate(-1.000000, 0.000000)" blush:i="0.0"><g id="Floor" transform="translate(210.875000, 2053.250000)" fill="#090E2B" fill-rule="nonzero" blush:i="0.0.0"><path d="M2990.625,-2.25 C2992.558,-2.25 2994.125,-0.682996624 2994.125,1.25 C2994.125,3.1185634 2992.66072,4.64512645 2990.81704,4.74482114 L2990.625,4.75 L2116.625,4.75 C2114.692,4.75 2113.125,3.18299662 2113.125,1.25 C2113.125,-0.618563404 2114.58928,-2.14512645 2116.43296,-2.24482114 L2116.625,-2.25 L2990.625,-2.25 Z" id="Path-4-Copy-2" blush:i="0.0.0.0"/><path d="M1963.625,-2.25 C1965.558,-2.25 1967.125,-0.682996624 1967.125,1.25 C1967.125,3.1185634 1965.66072,4.64512645 1963.81704,4.74482114 L1963.625,4.75 L1474.625,4.75 C1472.692,4.75 1471.125,3.18299662 1471.125,1.25 C1471.125,-0.618563404 1472.58928,-2.14512645 1474.43296,-2.24482114 L1474.625,-2.25 L1963.625,-2.25 Z" id="Path-4-Copy-3" blush:i="0.0.0.1"/><path d="M882.625,-2.25 C884.557997,-2.25 886.125,-0.682996624 886.125,1.25 C886.125,3.1185634 884.660722,4.64512645 882.817035,4.74482114 L882.625,4.75 L0.625,4.75 C-1.30799662,4.75 -2.875,3.18299662 -2.875,1.25 C-2.875,-0.618563404 -1.4107224,-2.14512645 0.432964797,-2.24482114 L0.625,-2.25 L882.625,-2.25 Z" id="Path-4-Copy" blush:i="0.0.0.2"/></g><g id="Medium Plants" transform="translate(0.000000, 1255.000000) scale(1 1)" blush:width="845" blush:height="800" blush:component="Medium Plants" blush:i="0.0.1" blush:value="Plant 5" blush:viewBox="0 38.47780126849898 844.9999999999998 761.0993657505287"><g id="Medium Plants/Plant 5" stroke="none" stroke-width="1" fill="none" fill-rule="evenodd" blush:viewBox="0 38.47780126849898 844.9999999999998 761.0993657505287" blush:i="0.0.1.0"><g id="Group" transform="translate(0.000000, 41.000000)" blush:i="0.0.1.0.0"><path d="M416.63677,583.047934 L426.647451,583.047934 C426.647451,583.047934 424.80074,524.172037 465.321274,464.212062 C505.841808,404.252087 536.97489,403.156308 536.97489,403.156308 C514.014969,403.951964 487.155191,424.303882 456.395555,464.212062 C426.914076,502.461934 417.413288,568.272504 416.63677,583.047934 Z" id="Fill-5" fill="#090E2B" blush:i="0.0.1.0.0.0"/><path d="M354.59194,558.411454 L345.24874,555.901054 C345.24874,555.901054 364.622625,446.510254 319.265944,368.07845 C273.909262,289.646645 77.6575283,202.398924 77.6575283,202.398924 C85.1493374,199.983041 270.872507,275.192963 328.380488,368.07845 C361.085413,420.902646 364.025485,527.827047 354.59194,558.411454 Z" id="Fill-12" fill="#090E2B" blush:i="0.0.1.0.0.1"/><path d="M493.43234,427.820814 C493.43234,427.820814 440.55314,366.128814 490.17314,326.944014 C490.17314,326.944014 526.41314,305.000814 555.96914,306.781614 C555.96914,306.781614 514.09154,377.003214 527.63954,383.987214 C541.18514,390.971214 568.66034,302.377614 568.66034,302.377614 C568.66034,302.377614 651.13874,294.378414 677.67074,307.136814 C677.67074,307.136814 607.16354,364.835214 622.00994,368.272014 C636.86114,371.706414 713.01794,315.071214 713.01794,315.071214 C713.01794,315.071214 789.78194,328.136814 785.68994,374.965614 C781.59554,421.792014 755.14754,436.254414 743.52194,435.006414 C731.89394,433.763214 663.88994,407.802414 662.40914,417.328014 C660.92834,426.853614 701.86514,457.981614 730.52834,459.440814 C730.52834,459.440814 676.40834,519.124014 640.44194,501.899214 C604.47314,484.674414 601.40114,457.369614 578.98034,447.128814 C556.55954,436.885614 537.41954,436.912014 546.67874,447.359214 C555.93314,457.801614 596.50994,467.953614 609.33314,490.633614 C622.15634,513.313614 633.66194,528.611214 596.44754,523.012014 C559.23314,517.412814 498.74354,490.182414 496.08674,459.001614 L493.43234,427.820814 Z" id="Fill-1" fill="#017C7F" blush:i="0.0.1.0.0.2"/><path d="M398.993366,567.130775 L407.998591,567.130775 C407.998591,567.130775 391.10022,460.315392 416.63677,368.449195 C442.173321,276.582997 480.856349,244.544738 480.856349,244.544738 C451.313712,258.975075 425.884615,305.602619 404.569057,384.427369 C393.611982,424.94654 391.021056,541.282798 398.993366,567.130775 Z" id="Fill-19" fill="#090E2B" blush:i="0.0.1.0.0.3"/><path d="M308.54546,350.237934 C308.54546,350.237934 392.66546,303.130734 353.40866,239.199534 C353.40866,239.199534 322.00466,199.947534 288.35906,189.853134 C288.35906,189.853134 306.30146,285.185934 288.35906,287.429934 C270.41186,289.673934 276.02066,179.758734 276.02066,179.758734 C276.02066,179.758734 187.41746,137.139534 152.64866,140.501934 C152.64866,140.501934 207.60386,233.593134 189.66146,231.351534 C171.71426,229.107534 110.02706,134.893134 110.02706,134.893134 C110.02706,134.893134 19.1822601,118.071534 4.59986012,171.905934 C-9.98013988,225.742734 13.5734601,252.661134 27.0302601,256.023534 C40.4918601,259.388334 126.85106,258.269934 124.60706,269.485134 C122.36546,280.697934 64.0430601,298.645134 31.5182601,288.550734 C31.5182601,288.550734 67.4078601,377.153934 114.51506,372.668334 C161.61986,368.182734 176.19986,339.020334 205.36226,336.778734 C234.52226,334.534734 255.83186,342.387534 241.25186,350.237934 C226.67186,358.088334 177.32306,352.808334 153.76946,372.833934 C130.21586,392.857134 111.15026,405.193134 154.89266,414.166734 C198.63266,423.137934 277.14146,417.531534 292.84466,383.885934 L308.54546,350.237934 Z" id="Fill-7" fill="#009BA0" blush:i="0.0.1.0.0.4"/><path d="M442.37138,285.271614 C442.37138,285.271614 331.48898,223.176414 383.23298,138.907614 C383.23298,138.907614 424.62818,87.1612142 468.98258,73.8532142 C468.98258,73.8532142 445.32818,199.522014 468.98258,202.478814 C492.63698,205.435614 485.24498,60.5476142 485.24498,60.5476142 C485.24498,60.5476142 578.38898,16.0270752 651.732872,7.30837358 C651.732872,7.30837358 572.955192,127.096243 614.256682,127.096243 C655.558172,127.096243 704.05538,1.41161425 704.05538,1.41161425 C704.05538,1.41161425 837.352848,-12.9891263 843.02738,50.2012142 C848.701912,113.391555 831.20258,156.646014 813.45938,161.083614 C795.72098,165.518814 681.87938,164.038014 684.83618,178.822014 C687.79298,193.608414 764.67218,217.262814 807.54578,203.957214 C807.54578,203.957214 760.23458,320.753214 698.13938,314.839614 C636.04658,308.926014 616.82498,270.487614 578.38898,267.528414 C539.94818,264.574014 511.85858,274.922814 531.07778,285.271614 C550.29698,295.620414 615.34898,288.662814 646.39538,315.058014 C677.44418,341.450814 702.57698,357.715614 644.91938,369.542814 C587.25938,381.370014 483.76658,373.978014 463.06898,329.623614 L442.37138,285.271614 Z" id="Fill-14" fill="#009BA0" blush:i="0.0.1.0.0.5"/><path d="M256.80074,554.130334 L587.20074,554.130334 L571.512822,687.477634 C566.772936,727.766667 532.627666,758.130334 492.060774,758.130334 L346.771912,758.130334 C305.015121,758.130334 270.281858,726.014581 267.016842,684.385634 L256.80074,554.130334 L256.80074,554.130334 Z" id="Rectangle" fill="#FFB201" blush:i="0.0.1.0.0.6"/></g></g></g><g id="UI Elements" transform="translate(1051.000000, 341.000000) scale(1 1)" blush:width="1101" blush:height="811" blush:component="UI Elements" blush:i="0.0.2" blush:value="UI Card 1" blush:viewBox="0 14.324728260869506 1100.9999999999998 798.8790760869566"><g id="UI Elements/UI Card 1" stroke="none" stroke-width="1" fill="none" fill-rule="evenodd" blush:viewBox="0 14.324728260869506 1100.9999999999998 798.8790760869566" blush:i="0.0.2.0"><g id="userinterface" transform="translate(1.000000, 17.000000)" blush:i="0.0.2.0.0"><path d="M1072.3832,793.4326 L68.6102,793.4326 C55.8452,793.4326 45.4982,783.0856 45.4982,770.3206 L45.4982,61.6156 C45.4982,48.8506 55.8452,38.5006 68.6102,38.5006 L1072.3832,38.5006 C1085.1482,38.5006 1095.4952,48.8506 1095.4952,61.6156 L1095.4952,770.3206 C1095.4952,783.0856 1085.1482,793.4326 1072.3832,793.4326 Z" id="Stroke-1-Copy" fill="#090E2B" blush:i="0.0.2.0.0.0"/><path d="M1029.885,757.932 L26.112,757.932 C13.347,757.932 3,747.585 3,734.82 L3,26.115 C3,13.35 13.347,3 26.112,3 L1029.885,3 C1042.65,3 1052.997,13.35 1052.997,26.115 L1052.997,734.82 C1052.997,747.585 1042.65,757.932 1029.885,757.932 Z" id="Stroke-1" fill="#FFF" blush:i="0.0.2.0.0.1"/><path d="M1029.885,4.54747351e-13 L26.112,4.54747351e-13 C11.6905975,4.54747351e-13 0,11.6926939 0,26.115 L0,734.82 C0,749.241854 11.6901458,760.932 26.112,760.932 L1029.885,760.932 C1044.30685,760.932 1055.997,749.241854 1055.997,734.82 L1055.997,26.115 C1055.997,11.6926939 1044.3064,4.54747351e-13 1029.885,4.54747351e-13 Z M26.112,6 L1029.885,6 C1040.99245,6 1049.997,15.0061616 1049.997,26.115 L1049.997,734.82 C1049.997,745.928146 1040.99315,754.932 1029.885,754.932 L26.112,754.932 C15.0038542,754.932 6,745.928146 6,734.82 L6,26.115 C6,15.0061616 15.0045468,6 26.112,6 Z" id="Stroke-1-Copy-2" fill="#090E2B" fill-rule="nonzero" blush:i="0.0.2.0.0.2"/><path d="M617.1762,372.0626 L197.7822,372.0626 C160.6212,372.0626 130.4982,341.9396 130.4982,304.7786 C130.4982,267.6236 160.6212,237.5006 197.7822,237.5006 L617.1762,237.5006 C654.3342,237.5006 684.4572,267.6236 684.4572,304.7786 C684.4572,341.9396 654.3342,372.0626 617.1762,372.0626 Z" id="Stroke-5" fill="#FFB201" blush:i="0.0.2.0.0.3"/><path d="M854.382,370.2114 L854.382,370.2114 C817.224,370.2114 787.098,340.0884 787.098,302.9274 C787.098,265.7724 817.224,235.6494 854.382,235.6494 C891.54,235.6494 921.663,265.7724 921.663,302.9274 C921.663,340.0884 891.54,370.2114 854.382,370.2114 Z" id="Stroke-7" fill="#C7D2F2" blush:i="0.0.2.0.0.4"/><g id="cross" transform="translate(945.572500, 53.129500)" fill="#000" fill-rule="nonzero" blush:i="0.0.2.0.0.5"><path d="M43.8180195,1.81801948 C45.5753788,0.0606601718 48.4246212,0.0606601718 50.1819805,1.81801948 C51.8844223,3.52046132 51.9376237,6.24760984 50.3415844,8.01409585 L50.1819805,8.18198052 L8.18198052,50.1819805 C6.4246212,51.9393398 3.5753788,51.9393398 1.81801948,50.1819805 C0.11557765,48.4795387 0.062376343,45.7523902 1.65841556,43.9859042 L1.81801948,43.8180195 L43.8180195,1.81801948 Z" id="Stroke-9" blush:i="0.0.2.0.0.5.0"/><path d="M1.81801948,1.81801948 C3.52046132,0.11557765 6.24760984,0.062376343 8.01409585,1.65841556 L8.18198052,1.81801948 L50.1819805,43.8180195 C51.9393398,45.5753788 51.9393398,48.4246212 50.1819805,50.1819805 C48.4795387,51.8844223 45.7523902,51.9376237 43.9859042,50.3415844 L43.8180195,50.1819805 L1.81801948,8.18198052 C0.0606601718,6.4246212 0.0606601718,3.5753788 1.81801948,1.81801948 Z" id="Stroke-11" blush:i="0.0.2.0.0.5.1"/></g><path d="M727.2462,457.5006 C737.187325,457.5006 745.2462,465.559475 745.2462,475.5006 C745.2462,485.331269 737.365417,493.321282 727.576865,493.497624 L727.2462,493.5006 L148.4982,493.5006 C138.557075,493.5006 130.4982,485.441725 130.4982,475.5006 C130.4982,465.669931 138.378983,457.679918 148.167535,457.503576 L148.4982,457.5006 L727.2462,457.5006 Z" id="Stroke-13" fill="#C7D2F2" fill-rule="nonzero" blush:i="0.0.2.0.0.6"/><path d="M479.0502,564.5006 C488.991325,564.5006 497.0502,572.559475 497.0502,582.5006 C497.0502,592.331269 489.169417,600.321282 479.380865,600.497624 L479.0502,600.5006 L148.4982,600.5006 C138.557075,600.5006 130.4982,592.441725 130.4982,582.5006 C130.4982,572.669931 138.378983,564.679918 148.167535,564.503576 L148.4982,564.5006 L479.0502,564.5006 Z" id="Stroke-15" fill="#C7D2F2" fill-rule="nonzero" blush:i="0.0.2.0.0.7"/></g></g></g></g><g transform="translate(249.000000, 562.000000) scale(1 1)" blush:has-customizable-colors="true" blush:width="1110" blush:height="1500" id="Master/Character/Standing" blush:component="Master/Character/Standing" blush:i="0.1" blush:value="Standing" blush:viewBox="322.5 75 607.5 1424.9999999999995"><g id="Master/Character/Standing" stroke="none" stroke-width="1" fill="none" fill-rule="evenodd" blush:has-customizable-colors="true" blush:viewBox="322.5 75 607.5 1424.9999999999995" blush:i="0.1.0"><g id="Lower Body/Standing" transform="translate(-64.000000, 629.000000) scale(1 1)" blush:width="1110" blush:height="871" blush:component="Lower Body/Standing" blush:i="0.1.0.0" blush:value="Walking 1" blush:viewBox="172.04999999999995 -3.3329081632653015 826.9500000000002 877.6658163265307"><g id="Lower Body/Standing/Walking 1" stroke="none" stroke-width="1" fill="none" fill-rule="evenodd" blush:viewBox="172.04999999999995 -3.3329081632653015 826.9500000000002 877.6658163265307" blush:i="0.1.0.0.0"><path d="M801,747.687502 C802.129589,758.517906 834.139628,827.458762 834.139628,827.458762 C852.387759,831.665218 883.250136,810.153822 879.721802,804.32176 C876.195477,798.489697 861.354185,729 861.354185,729 C861.354185,729 813.162409,739.769643 801,747.687502" id="leg-2" fill="#ca8f67" blush:color="Skin-500" blush:i="0.1.0.0.0.0"/><path d="M271.574592,679 C271.574592,679 236.247973,731.727289 219.943534,748.544506 C204.876888,764.086322 252.552413,794 252.552413,794 L330,719.908237 L271.574592,679 Z" id="leg-1" fill="#ca8f67" blush:color="Skin-500" blush:i="0.1.0.0.0.1"/><path d="M812.635753,370.807198 C833.322236,472.312266 862.427661,689.154094 867,728.962082 C833.431197,749.112089 783.399375,768.690066 778.435179,766.883976 C777.455535,766.527958 776.062041,756.413453 765.767782,743.231795 C758.12156,733.439306 766.998334,722.666768 758.013599,705.466909 C752.954437,695.779425 748.773956,693.582316 748.886915,672.382257 C748.918903,666.209949 746.421811,647.889034 744.814395,641.641722 C728.117461,576.739481 711.116638,504.271862 695.221414,450.75719 C672.519662,374.321373 601.527456,251.590244 601.527456,251.590244 C601.527456,251.590244 571.896223,344.448881 540.535617,422.883798 C481.274149,571.098199 354.398248,741.892728 343.473218,751.365201 C337.68732,756.380451 260.476374,706.023937 256,676.918483 C271.602331,653.767327 264.047076,653.137296 274.435302,635.817431 C279.818346,626.841983 288.328254,626.941988 293.391414,611.907237 C298.13669,597.821534 297.802811,589.74213 311.973663,576.689478 C330.422959,559.69763 341.064093,531.222208 347.273837,519.220609 C379.680062,456.595481 409.79712,387.020007 418.592924,330.016161 C451.474976,116.904519 446.063942,72.8723199 512.301876,0.421702002 C579.052622,-1.9174148 636.900604,-0.972367612 688.017031,0.421702002 C689.412524,32.8883233 790.363845,261.52474 812.635753,370.807198 Z" id="pant" fill="#090E2B" blush:i="0.1.0.0.0.2"/><g id="shoe-1" transform="translate(176.000000, 743.000000)" blush:i="0.1.0.0.0.3"><path d="M151.670252,109.488414 C146.415252,86.3634135 121.251252,83.7074135 105.950252,61.6184135 C101.629252,55.3804135 106.340252,41.8164135 97.928252,36.9074135 C85.679252,29.7584135 85.121252,49.6114135 64.209252,28.4494135 C58.672252,22.8474135 60.562252,11.9824135 51.230252,3.78941353 C49.713252,2.45841353 47.136252,-3.20458647 38.272252,2.49641353 C33.330252,5.67341353 5.43425201,24.4954135 4.98625201,37.6864135 C37.029252,68.2474135 59.817252,96.7004135 84.198252,109.224414 C101.964252,118.350414 115.192252,121.312414 148.119252,123.762414 C155.249252,124.293414 153.031252,115.477414 151.670252,109.488414" id="Fill-7" fill="#090E2B" blush:i="0.1.0.0.0.3.0"/><path d="M132.129652,127.849714 C99.175652,127.849714 85.835652,120.503714 65.060652,104.903714 C47.725652,91.8857135 31.246652,74.3287135 18.025652,61.3007135 C-4.57134799,39.0337135 -0.725347989,33.7267135 2.35865201,30.0637135 C8.91665201,22.2727135 13.514652,20.1087135 15.983652,19.8867135 C33.184652,18.3397135 35.173652,48.9427135 32.994652,60.4387135 C49.749652,78.2597135 62.324652,92.9457135 77.407652,103.050714 C98.469652,117.162714 111.573652,119.512714 151.702652,122.779714 C148.824652,128.745714 140.668652,127.849714 132.129652,127.849714" id="Fill-9" fill="#FFB201" blush:i="0.1.0.0.0.3.1"/><path d="M88.901652,72.6202135 C88.322652,74.2612135 102.845652,68.9532135 110.813652,70.2772135 C111.062652,70.3182135 105.145652,73.2662135 102.177652,77.2702135 C100.672652,79.3002135 100.118652,80.5152135 102.332652,79.8762135 C115.346652,76.1232135 119.015652,77.7592135 120.592652,77.4432135 C125.289652,76.5042135 118.053652,73.0852135 107.942652,75.3782135 C110.393652,73.8172135 114.252652,71.2412135 113.589652,69.6252135 C111.329652,64.1162135 89.912652,69.7552135 88.901652,72.6202135" id="Fill-12" fill="#FFB201" blush:i="0.1.0.0.0.3.2"/></g><path d="M614.374312,218.774218 C611.465613,229.242415 607.296671,242.803668 603.945279,250.790685 C602.447848,254.35882 602.223822,252.626767 602,252.237424 C606.554684,230.249106 613.166354,208.25278 619.105567,186.500669 C624.950696,167.998413 629.200348,137.527642 639,122 C628.918094,151.511929 622.905308,188.066238 614.374312,218.774218 Z" id="Fill-14" fill="#FFF" blush:i="0.1.0.0.0.4"/><g id="shoe-2" transform="translate(820.000000, 784.000000)" blush:i="0.1.0.0.0.5"><path d="M171.635654,15.2866137 C160.837654,1.37061372 120.440654,4.32261372 91.1376537,6.09061372 C81.2746537,6.68461372 64.0626537,-1.88138628 58.3506537,0.381613717 C50.0336537,3.67761372 64.6976537,18.2936137 36.0216537,27.0206137 C28.4296537,29.3316137 25.0156537,21.6286137 8.18365371,25.7336137 C5.44865371,26.4006137 1.24365371,27.3526137 0.0726537081,34.9166137 C-0.581346292,39.1336137 3.06865371,73.7176137 15.5586537,83.8066137 C70.5086537,65.3566137 125.987654,43.5216137 174.181654,25.4166137 C178.887654,23.6476137 174.398654,18.8476137 171.635654,15.2866137" id="Fill-16" fill="#090E2B" blush:i="0.1.0.0.0.5.0"/><path d="M165.912054,34.6753137 L35.4150537,84.9273137 C26.7570537,88.4853137 12.5110537,90.2613137 8.57505371,83.4243137 C5.63505371,78.3173137 3.41205371,65.6713137 3.56205371,64.7213137 C4.61205371,58.1003137 32.3810537,53.2283137 46.7600537,69.0453137 C95.9920537,55.1463137 176.322054,21.8503137 176.322054,21.8503137 C176.322054,21.8503137 180.181054,28.6183137 165.912054,34.6753137" id="Fill-18" fill="#FFB201" blush:i="0.1.0.0.0.5.1"/><path d="M100.736254,15.4595137 C101.639254,7.09151372 102.716254,5.30051372 100.820254,4.72751372 C96.2842537,3.35651372 81.2042537,18.2095137 81.5732537,23.6365137 C81.8502537,27.7045137 90.0112537,12.6605137 99.0512537,7.56151372 C96.4342537,12.6315137 96.8222537,25.1045137 99.8902537,21.4705137 C114.843254,3.76351372 118.740254,5.18251372 118.616254,4.77151372 C118.031254,2.81951372 110.315254,3.88451372 100.736254,15.4595137" id="Fill-21" fill="#FFB201" blush:i="0.1.0.0.0.5.2"/></g><path d="M288,683 C308.820557,702.793004 330.900536,721.302721 355,737 C329.265093,729.245308 305.633901,702.126374 288,683" id="Fill-23" fill="#FFB201" blush:i="0.1.0.0.0.6"/><path d="M864,705 C856.17222,711.876917 845.457747,715.019137 836.363124,719.890827 C827.307282,724.366868 816.517236,730.37855 807,731 C818.062507,723.896284 830.523115,719.753948 842.252852,714.006033 C849.066362,711.357376 857.099979,705.053952 864,705" id="Fill-25" fill="#FFB201" blush:i="0.1.0.0.0.7"/></g></g><g id="Upper Body/Standing" transform="translate(69.000000, -172.000000) scale(1 1)" blush:width="906" blush:height="1041" blush:component="Upper Body/Standing" blush:i="0.1.0.1" blush:value="Shopping Coffee 2" blush:viewBox="70.29310344827582 416.4000000000001 770.6206896551726 556.935"><g id="Upper Body/Standing/Shopping Coffee 2" stroke="none" stroke-width="1" fill="none" fill-rule="evenodd" blush:viewBox="70.29310344827582 416.4000000000001 770.6206896551726 556.935" blush:i="0.1.0.1.0"><polygon id="bag-strap" fill="#FFB201" points="313.83974 757.398591 300 838 305.25 837.52068 321 755" blush:i="0.1.0.1.0.0"/><path d="M786.278252,651.10399 C791.328241,648.208557 789.737333,624.694964 795.918002,633.205027 C797.455915,635.322272 798.808553,642.201644 798.808553,642.201644 L825.795616,643.887911 C825.795616,643.887911 827.482617,633.785656 829.538838,624.524086 C831.594058,615.262516 837.175937,645.929045 827.434154,655.304844 C825.581054,657.087418 817.066199,660.751724 801.528976,665.837922 C791.592078,669.090443 654.315264,745.946862 629.673638,738.490912 C604.890927,730.99388 567,673.729745 567,673.729745 L611.666513,617 C611.666513,617 643.703565,680.164412 652.755878,680.164412 C656.403591,680.164412 668.93953,673.729745 716.076341,665.837922 C733.395565,662.938272 781.228264,653.999423 786.278252,651.10399 Z" id="hand-2" fill="#ca8f67" blush:color="Skin-500" blush:i="0.1.0.1.0.1"/><path d="M535.965742,496.521459 C515.178733,487.803266 510.291226,487.919616 503.66698,480.315458 C500.833687,477.063041 496.655838,459.368807 499.284149,444.997536 C501.913463,430.625269 448.170884,421 448.170884,421 C448.170884,421 455.080748,469.498844 445.997129,475.853248 C440.958984,479.37766 425,484.676546 425,484.676546 C474.558153,527.80829 489.045431,535.213551 503.66698,534.995397 C525.92396,534.664016 536.690214,521.839369 535.965742,496.521459 Z" id="Fill-5" fill="#ca8f67" blush:color="Skin-500" blush:i="0.1.0.1.0.2"/><path d="M221.442785,756.389176 C170.320586,798.139517 148.682544,817.874293 144.520074,817.411525 C99.5236222,812.41122 62.5232294,856.149863 75.6993838,856 C88.8755382,855.850366 105.516418,850.797975 126.497702,846.505846 C144.529071,842.817721 223.348085,814.436584 292.059815,772.598097 C335.666779,746.044996 337.20741,760.001003 374.722614,671.493005 C385.804538,645.349585 321.136722,634.70429 321.136722,634.70429 C329.096907,620.36409 309.306473,649.022857 292.42668,697.130757 C286.322925,714.529654 272.181126,714.953358 221.442785,756.389176 Z" id="hand-1" fill="#ca8f67" blush:color="Skin-500" blush:i="0.1.0.1.0.3"/><path d="M432.561659,484.936518 C438.973815,489.656606 461.096355,515.501972 498.147199,524.345259 C525.78616,530.943996 526.337798,499.566267 524.388544,492.645738 C523.228202,488.530396 535.260115,493.039483 546.804465,499.979 C547.235388,500.238037 547.638255,500.537885 548.015002,500.873762 C553.088363,505.05382 580.55187,531.282137 627,640.96292 C613.881831,667.152001 571.080337,692.526609 571.080337,692.526609 L563.113441,677.224226 C562.963785,677.815086 562.811248,678.408781 562.655795,679.005344 C557.577923,698.490756 573.929832,769.205072 575.423559,815.441202 C576.248513,840.979703 432.202944,799.491506 368.944794,817.202064 C343.622513,824.291484 376.843929,764.620034 387.105795,725.496309 C394.555378,697.091547 392.290147,684.118357 394.506506,660.444831 C384.181761,680.050186 373.527099,698.617868 368.867105,704.099532 C358.825493,715.9129 312.948442,694.73858 297,666.16404 C297,666.16404 312.344744,630.173291 329.131155,589.075841 C353.3693,529.734576 369.351692,507.990011 380.082186,499.271274 C380.647638,498.354438 382.183505,497.279686 384.752232,496.038068 C387.569193,494.425676 389.932963,493.682302 391.932041,493.091956 C400.081964,490.126598 412.522429,486.464205 429.76305,482.013101 C430.522539,481.81702 431.113189,483.870278 432.561659,484.936518 Z" id="Tshirt" fill="#3615F6" blush:i="0.1.0.1.0.4"/><path d="M825.168366,655 L799.556866,655 C798.146559,655 796.95427,653.958929 796.770317,652.56593 L789,594 L833,594 L827.969677,652.438059 C827.843635,653.887638 826.6275,655 825.168366,655" id="Fill-16" fill="#FFB201" blush:i="0.1.0.1.0.5"/><path d="M556.637102,557.064687 C575.548412,605.312956 571.370622,627.221639 562.52612,676.699042 C562.46226,677.14153 561.729875,677.084338 561.778767,676.604725 C563.309393,651.664847 569.196415,626.437 565.807885,601.527224 C564.170495,591.741311 561.788745,581.707566 559.206438,572.110288 C558.962974,570.125613 554.494824,555.927863 556.637102,557.064687 Z M408.259361,638.708918 C407.20269,641.121031 396.526527,659.573899 394.536635,659.573899 C394.18702,659.573899 393.143718,659.342028 395.474247,654.654723 C400.420007,644.707501 403.786233,638.16663 407.607809,628.687751 C409.006725,625.468925 413.83671,614.353974 415.476096,611.166253 C420.04203,608.722032 409.380889,636.924918 408.259361,638.708918 Z" id="Combined-Shape" fill="#090E2B" blush:i="0.1.0.1.0.6"/><path d="M826.742627,655.086935 C832.512059,650.345255 837.805567,620.668179 830.278469,622.046512 C822.751371,623.424845 819.445042,625.615207 814,657.0159 C814.24572,659.993093 820.973194,659.829626 826.742627,655.086935 Z" id="Fill-27" fill="#ca8f67" blush:color="Skin-500" blush:i="0.1.0.1.0.7"/><path d="M830,591 L792,591 L793.852514,583.834186 C794.285035,582.161766 795.742788,581 797.407648,581 L824.592352,581 C826.257212,581 827.713821,582.161766 828.146341,583.834186 L830,591 Z" id="Fill-30" fill="#111B56" blush:i="0.1.0.1.0.8"/><polygon id="Fill-32" fill="#090E2B" points="786 596 836 596 836 587 786 587" blush:i="0.1.0.1.0.9"/><g id="Bag" transform="translate(254.000000, 484.000000)" blush:i="0.1.0.1.0.10"><path d="M164.53652,148.190512 C167.58552,132.607512 171.468025,112.261232 174.833025,96.7362318 C181.517025,66.1332318 190.08882,19.8568254 152.48182,3.71182538 C147.89982,2.77282538 155.503137,0.942 160.278137,0 C161.976137,0.277 183.053137,11.21 186.749137,36.406 C191.533137,69.029 183.365137,94.213 177.550137,125.692 C162.444137,198.16 146.350137,285.365 132.241137,358.678 C131.614137,362.268 125.735137,361.56 126.319137,357.713 C139.433337,285.264848 151.09452,218.060512 164.53652,148.190512 Z" id="Fill-14" fill="#FFB201" blush:i="0.1.0.1.0.10.0"/><path d="M166.302537,463.6173 C142.227537,501.8863 21.921537,495.1413 2.275537,454.4223 C-11.376463,426.1283 40.859537,349.9333 40.859537,349.9333 L139.637537,355.4713 C139.637537,355.4713 183.031537,437.0263 166.302537,463.6173" id="Fill-20" fill="#090E2B" blush:i="0.1.0.1.0.10.1"/><path d="M139.215637,375.2471 C136.740637,394.2141 127.173637,413.0821 111.060637,423.9711 C72.420637,449.2461 42.198637,415.7261 40.767637,376.6001 C40.608637,374.1171 39.044637,347.6861 43.215637,353.8551 C43.133637,375.4801 45.520637,399.4701 60.156637,416.4681 C75.170637,434.1401 102.325637,428.5601 117.123637,413.4691 C127.910637,403.2781 134.631637,389.4361 138.218637,375.0611 C138.326637,374.4641 139.329637,374.6191 139.215637,375.2471" id="Fill-23" fill="#FFF" blush:i="0.1.0.1.0.10.2"/></g></g></g><g id="Head" transform="translate(399.000000, 26.000000) scale(1 1)" blush:width="300" blush:height="300" blush:component="Head" blush:i="0.1.0.2" blush:value="Ponytail Gray" blush:viewBox="10.5 -24 231.00000000000003 301.5"><g id="Head/Ponytail Gray" stroke="none" stroke-width="1" fill="none" fill-rule="evenodd" blush:viewBox="10.5 -24 231.00000000000003 301.5" blush:i="0.1.0.2.0"><path d="M186.9964,62.8355 C217.2344,59.0265 198.7284,80.4845 209.6584,91.4535 C220.2254,102.0605 236.9284,103.5395 237.5074,152.7225 C237.7864,176.3945 249.110317,198.629791 229.121449,243.279848 C221.151174,261.083419 203.0324,276.4905 190.8944,276.4905 C159.5154,276.4905 114.5994,224.9675 114.5994,224.9675 C111.678535,222.113515 109.230749,218.089598 107.213306,213.593181 C99.2318415,214.610508 84.28954,210.476592 79.7281,197.7576 C76.4331,188.5696 78.6431,175.6606 85.5011,173.7346 C91.6130979,172.016106 96.5055762,174.28179 100.299595,177.50238 C107.532681,158.534519 158.929296,66.3728944 186.9964,62.8355 Z" id="Combined-Shape" fill="#ca8f67" blush:color="Skin-500" blush:i="0.1.0.2.0.0"/><path d="M102.4979,192.4939 C99.6249,186.7259 92.7039,183.1519 86.7259,187.1879 C85.3729,188.1009 87.2409,188.1409 87.8109,188.0779 C94.9129,187.1489 97.6879,189.6729 100.0209,193.7109 C97.7899,194.2579 95.5609,196.2429 95.2749,198.4849 C95.1019,199.8609 95.8059,204.2659 96.2729,202.6739 C96.5259,201.8099 95.9119,195.5269 101.2009,196.0799 C101.2809,196.0979 103.1299,199.2849 103.6499,199.5149 C104.5389,199.9079 103.8099,195.1309 102.4979,192.4939" id="Fill-10" fill="#090E2B" blush:i="0.1.0.2.0.1"/><path d="M138.080287,248.001974 C138.792924,248.108023 144.270382,252.072286 145.939382,253.386286 C152.268382,258.363286 157.59636,262.084659 165.385454,267.257016 C166.885041,268.252818 170.414336,270.174143 170.322336,270.650143 C170.189336,271.322143 165.46035,270.219413 164.070319,269.514911 C155.808854,265.327792 147.737728,257.41647 141.985788,252.274316 C140.105418,250.593292 137.509424,247.917023 138.080287,248.001974 Z" id="Fill-12" fill="#090E2B" blush:i="0.1.0.2.0.2"/><path d="M150.6438,159.4289 C163.984666,146.458309 179.2618,130.0339 179.2618,124.3129 C176.5508,140.2049 176.4468,144.5609 170.5558,158.0789 C179.5208,154.1709 199.725465,124.3129 201.3348,106.377934 C213.9648,132.779934 228.478637,120.306515 237.1438,152.9279 C246.6318,140.8489 240.4388,89.8279 220.3338,70.9229 C211.6178,62.7269 205.1038,63.8029 201.3348,64.9799 C195.935366,37.9444845 157.374931,41.3367027 147.9268,45.1285 C149.2828,21.6085 130.4668,-22.9851 111.4908,-23.6201 C92.5158,-24.2561 52.2558,-29.6931 26.6028,33.8829 C16.2298,59.5889 16.2568,72.5719 39.1068,138.3549 C48.9488,166.6939 7.8818,175.9439 11.1898,178.9579 C18.8538,185.9379 59.6718,185.0439 65.5088,154.3809 C71.4848,122.9839 70.1318,121.3729 71.5848,111.8539 C70.3138,128.9209 72.127286,151.126397 90.373286,171.901397 C97.223286,177.556397 100.6148,174.0549 110.0338,188.1449 C111.8428,190.8499 117.6018,205.7239 119.8378,200.8289 C122.5318,194.9299 115.5928,174.7089 117.4608,174.5329 C124.2378,173.8969 140.347601,169.439329 150.6438,159.4289 Z" id="Fill-3" fill="#E3E4E6" blush:i="0.1.0.2.0.3"/><path d="M122.036418,49.6342397 C130.50821,45.6673042 140.939866,43.6629013 147.9268,45.1285 C151.0178,37.6225 147.8908,35.6535 147.8908,35.6535 C147.8908,35.6535 140.5188,28.6145 126.1018,34.7965 C111.6838,40.9785 106.434868,52.0960291 106.661062,54.6087238 C106.811407,56.2788379 107.62493,57.5814173 109.9168,57.7575 C109.9168,57.7575 115.59775,52.6491608 122.036418,49.6342397 Z" id="Fill-6" fill="#FF00A4" blush:i="0.1.0.2.0.4"/></g></g><g id="Expressions" transform="translate(520.000000, 159.000000) scale(1 1)" blush:width="120" blush:height="120" blush:component="Expressions" blush:i="0.1.0.3" blush:value="Relaxed" blush:viewBox="22.799999999999997 15.599999999999994 85.80000000000001 91.80000000000001"><g id="Expressions/Relaxed" stroke="none" stroke-width="1" fill="none" fill-rule="evenodd" blush:viewBox="22.799999999999997 15.599999999999994 85.80000000000001 91.80000000000001" blush:i="0.1.0.3.0"><path d="M93.917,85.9779 C78.288,85.3499 67.34,84.9099 56.819,84.4879 C53.549,84.3559 50.673,90.0739 56.294,97.5689 C64.259,108.1889 84.891,111.8759 93.281,99.0539 C97.555,92.5239 97.31,86.1149 93.917,85.9779" id="Fill-1" fill="#FFF" blush:i="0.1.0.3.0.0"/><path d="M82.7872,55.7084 C86.8282,59.4834 96.9612,74.6464 87.8282,76.8394 C85.9422,77.2914 77.3212,77.5114 78.5922,75.6374 C79.6052,74.1434 85.9772,75.0244 86.8982,72.1854 C88.1082,68.4554 83.7122,61.1524 80.9722,56.1434 C80.5012,55.2804 82.1522,54.9674 82.7872,55.7084" id="nose" fill="#090E2B" blush:i="0.1.0.3.0.1"/><path d="M63.2787643,47.5005595 C63.8977643,55.1465595 54.2727643,60.0135595 46.1077643,56.1935595 C41.9017643,54.2275595 39.7587643,51.2665595 40.7837643,50.0295595 C41.4397643,49.2375595 43.3107643,50.3635595 43.9337643,50.7335595 C52.2097643,55.6545595 58.7657643,51.2125595 60.7667643,46.8055595 C61.5487643,45.0855595 63.0797643,45.0435595 63.2787643,47.5005595 Z M104.514164,42.1987595 C103.866164,45.3027595 102.660164,46.8727595 101.140164,47.9767595 C96.7091643,51.1937595 89.4801643,47.9737595 88.0981643,45.0087595 C87.0641643,42.7917595 88.5051643,42.7377595 90.1931643,43.7887595 C92.8701643,45.4587595 95.4171643,45.8007595 97.1021643,45.4817595 C100.340164,44.8707595 101.879164,41.6127595 103.045164,40.2707595 C103.679164,39.5417595 105.019164,39.7827595 104.514164,42.1987595 Z" id="eye" fill="#090E2B" transform="translate(72.577838, 48.716394) rotate(3.000000) translate(-72.577838, -48.716394)" blush:i="0.1.0.3.0.2"/><path d="M62.79355,24.2519929 C66.09155,27.4989929 65.39755,33.0019929 61.13355,31.9079929 C49.32655,25.7259929 38.64055,24.0389929 28.38555,32.9259929 C24.70055,36.1199929 22.78655,33.4669929 23.96555,30.1789929 C24.80555,27.8369929 28.41655,23.5259929 31.44155,21.8919929 C41.35255,16.5349929 55.59955,17.1699929 62.79355,24.2519929 Z M106.56795,16.9292929 C108.41995,18.3412929 109.65195,21.1502929 106.65095,21.9192929 C105.57695,22.1952929 94.27495,18.5422929 86.72495,27.4442929 C85.02995,29.4432929 81.19395,28.9722929 81.57395,25.6042929 C82.55195,16.9622929 97.18895,9.78229286 106.56795,16.9292929 Z" id="eybrow" fill="#090E2B" transform="translate(66.040205, 24.189369) rotate(3.000000) translate(-66.040205, -24.189369)" blush:i="0.1.0.3.0.3"/></g></g><g id="Facial Accesories" transform="translate(517.000000, 209.000000) scale(1 1)" fill="#000" blush:width="120" blush:height="110" blush:component="Facial Accesories" blush:i="0.1.0.4" blush:value="None" blush:viewBox="210 192.5 0 0"><g id="Facial Accesories/None" stroke="none" stroke-width="1" fill="none" fill-rule="evenodd" fill-opacity="0" blush:viewBox="210 192.5 0 0" blush:i="0.1.0.4.0"/></g><g id="Glass" transform="translate(520.000000, 164.000000) scale(1 1)" fill="#000" blush:width="120" blush:height="75" blush:component="Glass" blush:i="0.1.0.5" blush:value="None" blush:viewBox="210 131.25 0 0"><g id="Glass/None" stroke="none" stroke-width="1" fill="none" fill-rule="evenodd" fill-opacity="0" blush:viewBox="210 131.25 0 0" blush:i="0.1.0.5.0"/></g></g></g><g transform="translate(2415.000000, 1312.000000) scale(-1, 1) translate(-2415.000000, -1312.000000) translate(1860.000000, 562.000000) scale(1 1)" blush:has-customizable-colors="true" blush:width="1110" blush:height="1500" id="Master/Character/Standing" blush:component="Master/Character/Standing" blush:i="0.2" blush:value="Standing" blush:viewBox="322.5 75 607.5 1424.9999999999995"><g id="Master/Character/Standing" stroke="none" stroke-width="1" fill="none" fill-rule="evenodd" blush:has-customizable-colors="true" blush:viewBox="322.5 75 607.5 1424.9999999999995" blush:i="0.2.0"><g id="Lower Body/Standing" transform="translate(-64.000000, 629.000000) scale(1 1)" blush:width="1110" blush:height="871" blush:component="Lower Body/Standing" blush:i="0.2.0.0" blush:value="Running" blush:viewBox="66.60000000000002 -3.3329081632653015 976.8000000000003 916.5497448979592"><g id="Lower Body/Standing/Running" stroke="none" stroke-width="1" fill="none" fill-rule="evenodd" blush:viewBox="66.60000000000002 -3.3329081632653015 976.8000000000003 916.5497448979592" blush:i="0.2.0.0.0"><g id="Group" transform="translate(68.000000, 0.000000)" blush:i="0.2.0.0.0.0"><g id="leg-2" transform="translate(713.999940, 727.000000)" blush:i="0.2.0.0.0.0.0"><path d="M86.8812876,-5.95025052e-13 C86.8812876,-5.95025052e-13 110.415193,71.5226503 114.153391,77.1032393 C118.69279,83.8785521 136.916223,85.263092 136.916223,85.263092 C136.916223,85.263092 135.741202,111.238847 117.660601,117.980663 C105.075708,122.673583 66.2386266,135.834528 70.4499571,125.734086 C74.6624034,115.633644 -6.34304245e-14,35.5882577 -6.34304245e-14,35.5882577 L86.8812876,-5.95025052e-13 Z" id="Fill-1" fill="#757eff" blush:color="Skin-500" blush:i="0.2.0.0.0.0.0.0"/><g id="shoe-2" transform="translate(64.488745, 73.673999)" blush:i="0.2.0.0.0.0.0.1"><path d="M187.396689,7.11111109 C173.558663,-6.85599321 130.552655,3.64864483 97.8796932,6.01464483 C73.7900794,7.75871845 63.8453584,3.58946692 57.7303369,6.68681661 C52.0270751,9.57536876 70.1835558,30.0230129 35.8680193,40.5734301 C27.402955,43.1761418 16.7875902,44.9414301 2.34252578,42.1031234 C0,41.6430988 0.280379859,43.4809638 0.00252578201,52.0237982 C-0.151465634,56.7837123 6.73128115,94.6240804 21.9273326,104.120461 C47.2299078,92.0425835 65.1063026,77.7963381 90.9087919,69.1909761 C137.676431,53.5914546 159.69274,38.9879086 190.851453,19.0248534 C195.574972,15.9989638 190.93626,10.6841172 187.396689,7.11111109" id="Fill-16" fill="#071777" blush:i="0.2.0.0.0.0.0.1.0"/><path d="M183.670878,29.3737307 C122.110019,72.5702583 80.6004056,73.0782951 66.2747404,86.9303933 C60.3137103,92.6952154 22.7531953,112.913964 17.4717361,105.868442 C13.5248691,100.603841 11.6624657,93.5259393 12.6968863,93.2400988 C17.7908777,91.8343442 25.9825515,92.4652031 55.5466717,79.1378902 C92.6184314,61.5587 139.393882,52.0600865 184.200921,19.5200497 C189.350706,15.7784424 191.07474,11.3423319 191.07474,11.3423319 C191.07474,11.3423319 194.406758,13.6636694 194.27062,17.0301111 C194.135599,20.3965528 190.752251,24.4050191 183.670878,29.3737307" id="Fill-18" fill="#FFB201" blush:i="0.2.0.0.0.0.0.1.1"/><path d="M99.9297876,17.201727 C96.2060966,16.5440706 98.5896159,7.29110127 101.759831,4.64707673 C105.745753,1.32306446 112.213393,3.95369023 107.395024,5.47780066 C101.806697,7.2464387 103.527384,17.8359356 99.9297876,17.201727" id="Fill-20" fill="#FFB201" blush:i="0.2.0.0.0.0.0.1.2"/><path d="M118.468234,15.1375344 C112.566346,11.7253135 117.851152,0.797497591 123.354672,0.793029745 C126.010466,0.790798204 127.154243,3.144516 124.936989,3.03955894 C116.410552,6.31555894 122.563513,14.7936326 118.468234,15.1375344" id="Fill-22" fill="#FFB201" blush:i="0.2.0.0.0.0.0.1.3"/></g></g><g id="leg-1" transform="translate(-0.000060, 553.000000)" blush:i="0.2.0.0.0.0.1"><path d="M100.386404,52.8810145 C100.386404,52.8810145 159.42143,13.4878607 177.805139,1.34132224 C197.031328,-11.3617931 218.582716,70.3468222 218.582716,70.3468222 C218.582716,70.3468222 138.367262,89.2972069 128.931267,94.7982838 C124.401542,97.4372838 117.672879,108.472899 117.672879,108.472899 C117.672879,108.472899 90.7638126,98.3998607 89.5023279,80.3518222 C88.2408432,62.3026684 100.386404,52.8810145 100.386404,52.8810145" id="Fill-3" fill="#757eff" blush:color="Skin-500" blush:i="0.2.0.0.0.0.1.0"/><g id="shoe-1" transform="translate(-0.000000, 45.068572)" blush:i="0.2.0.0.0.0.1.1"><path d="M64.6502973,0.515596262 C59.7808993,0.967327032 57.1640728,-1.57240374 51.348282,12.1501732 C45.5324912,25.8705193 39.197134,51.166327 37.3792106,55.2943655 C29.8147718,72.472404 12.3707514,92.1399809 8.66227688,109.025789 C-6.18726394,176.635942 23.6090269,187.089327 27.4426442,184.842942 C39.4574759,177.802635 48.4577054,155.851865 58.1551595,145.466519 C76.8472565,125.449827 123.79594,62.9146732 124.85295,56.0539424 C108.804496,51.4507501 101.990915,40.0626732 101.080277,29.5457116 C100.013211,17.2340963 104.259129,9.41525011 102.669144,6.07801934 C101.07916,2.74078857 78.4674095,-0.764865276 64.6502973,0.515596262" id="Fill-8" fill="#071777" blush:i="0.2.0.0.0.0.1.1.0"/><path d="M91.2091871,105.760418 C90.3197789,105.765965 89.6080289,104.987427 89.6962993,104.104042 C90.1756412,91.2380809 71.5584065,91.2258116 72.1740646,87.5327732 C72.8500595,84.0505424 94.2070289,88.332504 92.9142585,103.681312 C92.848335,104.467658 91.9812738,105.760418 91.2091871,105.760418" id="Fill-10" fill="#FFB201" blush:i="0.2.0.0.0.0.1.1.1"/><path d="M103.614531,88.9339122 C102.909486,88.9339122 102.279302,88.4419232 102.130695,87.7269616 C99.5060468,76.5865001 83.9671029,75.1153078 84.6319243,71.4769232 C85.6274804,68.2345001 104.543047,74.982577 105.100603,87.1123847 C105.144179,88.0604616 104.560924,88.9449616 103.614531,88.9339122" id="Fill-12" fill="#FFB201" blush:i="0.2.0.0.0.0.1.1.2"/><path d="M53.603982,41.4101693 C56.2520942,27.6039386 62.9841095,3.92097703 64.6500738,0.515707801 C59.7806759,0.96743857 52.9168136,-3.99825374 47.1021401,9.7232078 C41.2863493,23.4457847 39.1969106,51.1664386 37.3789871,55.294477 C29.8145483,72.4725155 9.28329831,94.9385924 4.51222688,111.557823 C0.0171401435,127.210015 -3.41981904,157.183746 5.91561463,175.737054 C12.1850483,188.198131 23.6088034,187.089439 27.4424208,184.843054 C28.937431,183.967477 30.9978187,182.431592 32.4067932,181.144439 C31.1743595,181.738939 30.1832728,182.172823 28.5821146,182.629015 C19.8768646,185.112977 11.2610024,173.239708 8.7737881,151.720592 C6.28657382,130.200362 10.212931,108.782746 22.8579463,90.4391309 C30.1173493,79.9099001 51.0027983,54.975477 53.603982,41.4101693" id="Fill-14" fill="#FFB201" blush:i="0.2.0.0.0.0.1.1.3"/></g></g><path d="M628.138791,249.3571 C642.496601,138.247068 634.681308,0 634.681308,0 C634.681308,0 566.831168,0 431.130889,0 C431.130889,0 395.87848,47.5599962 403.828897,124.793374 C409.714735,181.97064 438.898174,240.012628 469.347671,295.628481 C465.477985,313.947934 461.130449,327.818967 456.262638,334.800251 C403.669066,410.250365 228.935865,470.048962 161.148248,559.937184 C150.091841,574.599667 222.21248,666.522888 234.548362,690.412634 C239.409474,699.8252 471.501343,556.50124 552.417535,481.747692 C588.663747,604.444826 628.841051,786.246222 671.533763,795.696743 C692.752283,800.392979 793.508156,749.169731 811.990207,737.243277 C812.892315,724.978587 750.950536,570.720556 683.29243,412.72295 C659.567433,357.316959 641.688276,299.934016 628.138791,249.3571 Z" id="Fill-5" fill="#001386" blush:i="0.2.0.0.0.0.2"/><path d="M471.288096,298.13676 C505.014456,355.262303 534.453719,411.650388 552.413,478.304688 C553.534826,482.467575 552.760844,483.591106 552.44208,482.729434 C536.582168,439.861776 518.87678,401.465864 499.598822,361.495442 C489.321197,340.583652 481.468415,317.597134 470.081267,297.243754 C469.774806,296.759203 470.368714,296.967347 471.288096,298.13676" id="Fill-24" fill="#090E2B" blush:i="0.2.0.0.0.0.3"/><path d="M574.19504,47.2123655 C585.49684,73.8390424 597.737357,124.231476 605.43642,152.401485 C613.442002,183.507291 621.340528,217.439373 628.964087,248.75416 C629.146647,249.423571 628.582064,248.592116 628.393869,247.85677 C611.590486,189.736498 575.655518,55.8454167 574.833999,52.9006801 C574.379854,51.5618587 573.647361,45.8344299 574.19504,47.2123655" id="Fill-26" fill="#090E2B" blush:i="0.2.0.0.0.0.4"/></g></g></g><g id="Upper Body/Standing" transform="translate(69.000000, -172.000000) scale(1 1)" blush:width="906" blush:height="1041" blush:component="Upper Body/Standing" blush:i="0.2.0.1" blush:value="Talking 3" blush:viewBox="288.98275862068965 411.19499999999994 567.551724137931 629.805"><g id="Upper Body/Standing/Talking 3" stroke="none" stroke-width="1" fill="none" fill-rule="evenodd" blush:viewBox="288.98275862068965 411.19499999999994 567.551724137931 629.805" blush:i="0.2.0.1.0"><path d="M594.420301,639 C594.420301,639 614.788019,687.538212 628.326197,696.0312 C689.65917,734.505905 760.529518,788.562911 780.54352,788.506964 C815.546539,788.411054 836.843515,807.140386 837.459023,808.910716 C839.332525,814.305627 824.172644,813.785118 824.172644,813.785118 C824.172644,813.785118 836.02417,827.522159 847.600916,835.907249 C859.177662,844.292339 852.578937,849.836109 847.028374,850.559427 C811.853491,855.141105 777.660824,822.657748 761.998344,814.765193 C715.010904,791.085531 651.690521,793.282459 587.17809,745.427602 C544.439254,713.725508 536,646.710726 536,646.710726 L594.420301,639 Z" id="hand-2" fill="#757eff" blush:color="Skin-500" blush:i="0.2.0.1.0.0"/><path d="M379.47164,682.719625 C379.47164,682.719625 357.803929,747.534355 359.29846,761.021686 C368.140106,840.825558 365.329391,932.240246 370.413786,948.046742 C376.442724,966.783921 387.707503,987.211762 388.695886,997.166887 C389.464075,1004.91076 392.418264,1010.73415 391.949978,1011.40662 C388.688911,1016.08992 380.240826,1003.50687 380.240826,1003.50687 C380.240826,1003.50687 376.321169,1018.24321 376.321169,1032.53991 C376.321169,1046.8346 364.153693,1036.90345 360.237026,1032.91461 C341.170795,1013.49597 354.446216,974.793585 349.765345,957.894952 C337.935634,915.195729 294.885169,815.453628 294.025315,751.062564 C293.314915,697.851655 307.791939,638 307.791939,638 L379.47164,682.719625 Z" id="hand-1" fill="#757eff" blush:color="Skin-500" blush:i="0.2.0.1.0.1"/><path d="M495.972307,421.517402 C495.972307,421.517402 489.254058,463.694548 495.762956,476.264565 C500.945634,486.273819 531.523831,499.962858 531.523831,499.962858 L537,529.345184 L423.468913,541 C410.331918,538.085547 362.777296,525.899195 377.956711,506.851838 C393.135125,487.804481 425.290964,482.552071 430.517715,474.109448 C440.553518,457.900611 442.387589,424.951401 442.111126,412.505277 C442.111126,409.413978 495.972307,421.517402 495.972307,421.517402" id="neck" fill="#757eff" blush:color="Skin-500" blush:i="0.2.0.1.0.2"/><g id="t-shirt" transform="translate(292.000000, 486.000000)" blush:i="0.2.0.1.0.3"><path d="M252.0582,19.7031764 C255.4842,22.4611764 279.0732,32.4241764 286.3982,68.0261764 C289.0352,80.8401764 306.0832,128.800176 321.1392,167.597176 C306.9542,192.404176 287.1982,207.531176 266.2892,214.200176 L228.2042,128.111176 C228.2042,128.111176 250.8722,30.6361764 252.0582,19.7031764" id="Cloth-2" fill="#3615F6" blush:i="0.2.0.1.0.3.0"/><path d="M110.4468,0.0136764189 C123.8688,2.67167642 170.2358,34.6536764 198.6858,31.5776764 C213.0658,30.0236764 224.8198,5.46367642 225.2708,4.91467642 C225.7228,4.36767642 256.7298,20.9096764 266.4388,30.2636764 C276.2108,204.138676 268.7258,203.022676 266.1348,220.074676 C257.9328,274.047676 267.9068,297.775676 273.6768,320.855676 C275.8818,329.670676 70.5158,340.273676 74.9778,314.094676 C86.8838,244.255676 118.0118,233.325676 89.0178,161.657676 C74.5228,143.351676 39.9348,126.005676 33.1768,74.8846764 C29.8578,49.7816764 47.8658,32.3416764 54.1348,27.1536764 C75.0788,9.82167642 108.2148,-0.427323581 110.4468,0.0136764189" id="Cloth-1" fill="#3615F6" blush:i="0.2.0.1.0.3.1"/><path d="M38.316,46.6992764 C23.77,75.5632764 18.599,108.175276 -1.70530257e-13,171.015276 C11.17,191.570276 44.819,201.822276 89.626,209.894276 C89.626,209.894276 94.242,189.162276 99.22,170.770276 C105.706,146.817276 38.316,46.6992764 38.316,46.6992764" id="Cloth-3" fill="#3615F6" blush:i="0.2.0.1.0.3.2"/><path d="M263.0533,61.0176764 C267.5873,74.8956764 273.9913,88.4526764 277.6453,102.608676 C280.0363,112.136676 280.5003,122.300676 280.0423,132.080676 C279.0913,153.285676 275.4153,174.378676 271.3243,195.149676 C269.2403,205.726676 268.0763,212.153676 267.4103,213.816676 C266.5063,216.073676 266.7763,209.735676 269.2953,194.788676 C271.8093,177.785676 274.9313,158.626676 276.5493,141.647676 C277.7653,128.915676 277.5623,114.940676 274.8243,102.383676 C272.3413,91.3246764 268.4643,81.4866764 265.1413,70.6196764 C264.9503,69.1046764 261.1053,59.6106764 263.0533,61.0176764" id="Fill-15" fill="#090E2B" blush:i="0.2.0.1.0.3.3"/><path d="M117.8404,74.2851764 C114.7574,101.612176 110.1684,128.761176 104.1614,155.596176 C103.2654,157.756176 96.4204,187.256176 96.1164,182.060176 C96.0774,181.382176 96.2134,180.032176 96.3544,179.363176 C101.6594,154.144176 107.1554,126.484176 111.7034,101.126176 C111.7044,101.126176 116.4114,74.0911764 116.4114,74.0911764 C116.5384,73.2221764 117.9564,73.3601764 117.8404,74.2851764" id="Fill-17" fill="#090E2B" blush:i="0.2.0.1.0.3.4"/></g></g></g><g id="Head" transform="translate(399.000000, 26.000000) scale(1 1)" blush:width="300" blush:height="300" blush:component="Head" blush:i="0.2.0.2" blush:value="Hair Bun Dark" blush:viewBox="13.5 -16.49999999999997 229.50000000000003 283.5"><g id="Head/Hair Bun Dark" stroke="none" stroke-width="1" fill="none" fill-rule="evenodd" blush:viewBox="13.5 -16.49999999999997 229.50000000000003 283.5" blush:i="0.2.0.2.0"><path d="M199.344059,265.553095 C216.516924,263.335386 241.691505,222.379074 236.024106,172.148465 C230.356708,121.917856 241.691505,121.917856 230.01893,81.5710225 C220.329736,48.0798441 161.708955,79.0941821 138.1545,89.6041 C110.246649,102.056489 86.0355,150.8011 87.6185,184.7161 C87.6185,224.594598 145.237382,272.54045 199.344059,265.553095 Z" id="Fill-1" fill="#757eff" blush:color="Skin-500" blush:i="0.2.0.2.0.0"/><path d="M193.5844,33.9056 C150.2074,14.2296 105.6884,35.1006 105.6884,35.1006 C118.5984,-30.0504 38.0714,-33.9034 17.3444,29.3026 C3.2354,65.4986 37.2294,97.3536 54.9914,81.5726 C39.5924,101.0976 42.2994,153.2116 59.4064,183.8516 C66.4564,196.4786 78.6364,205.7256 88.9734,207.6486 C107.8404,211.1596 88.8364,193.3466 86.9744,187.8896 C87.7264,172.1066 106.4474,144.4096 109.9404,178.8516 C111.3964,187.5766 106.8344,222.2976 107.4114,230.4736 C107.8204,236.2766 108.1734,239.4086 111.7514,246.0656 C115.1854,252.4546 113.0344,265.5186 113.4164,266.9406 C113.9394,263.3896 115.1464,256.9646 113.9464,249.5446 C113.4484,246.4556 112.2384,243.3206 110.8584,239.9496 C107.9674,232.8816 114.1684,216.7296 117.1604,179.2596 C119.2104,153.5926 106.2734,140.1506 121.6944,130.4506 C153.1814,110.6466 206.1304,133.4336 236.4844,108.1216 C250.1884,96.6956 237.1654,53.6756 193.5844,33.9056" id="Fill-3" fill="#090E2B" blush:i="0.2.0.2.0.1"/><path d="M108.016,170.0277 C110.682,180.5817 111.718862,189.325045 102.418862,193.792045 C93.1178621,198.259045 76.839,190.9327 72.126,181.1207 C67.413,171.3077 69.907,156.1527 79.058,151.3867 C93.319,143.9607 104.57649,156.411576 108.016,170.0277 Z" id="Fill-6" fill="#757eff" blush:color="Skin-500" blush:i="0.2.0.2.0.2"/><path d="M107.0241,22.7615 C108.7201,24.7845 106.6701,28.7715 105.5911,26.3665 C100.2951,21.6835 83.5781,30.9485 79.3101,35.2825 C64.5022581,48.7512605 56.5310332,63.01493 54.9982454,81.52041 C55.0086551,81.4325177 55.1506358,81.1065033 55.2124,80.9273 C62.9104,58.6643 80.6224,35.9053 105.5624,33.7633 C106.4504,33.6903 106.6934,35.0523 105.8134,35.2673 C81.4394,41.4393 66.3594,61.2143 55.2544,81.0903 C55.1694,81.2413 55.0364,81.5563 55.0014,81.5446334 L54.9974988,81.5294302 C54.9966974,81.539119 54.9958978,81.5488089 54.9951,81.5585 C54.9901,81.6215 54.9741,81.4295 54.9711,81.3665 C53.7271,59.3915 68.2001,37.4115 86.1501,26.2935 C91.8931,22.7355 101.9861,16.7525 107.0241,22.7615 Z" id="Combined-Shape" fill="#FFB201" blush:i="0.2.0.2.0.3"/><path d="M100.3978,178.1312 C99.8758,174.3442 99.0018,170.9522 96.5408,168.0812 C92.8728,163.9912 87.4958,161.4252 82.0198,161.7142 C81.6068,161.7352 80.6908,162.3182 80.6278,162.7422 C80.5488,163.2702 81.4808,163.7792 82.0058,163.8082 C87.8878,164.5712 93.6318,167.8562 96.4468,173.1822 C93.1198,171.9562 85.4758,175.8292 86.0728,178.4382 C86.4988,180.3022 92.8178,174.3252 97.8648,176.1792 C98.4678,177.6342 99.0788,179.9952 99.5408,182.3572 C99.6238,182.7792 99.8948,183.2822 100.2708,183.0372 C100.8858,182.6372 100.5948,179.5582 100.3978,178.1312" id="Fill-12" fill="#090E2B" blush:i="0.2.0.2.0.4"/><path d="M132.3031,247.9544 C137.5441,250.6564 146.3971,255.2584 154.0611,258.6254 C156.5331,259.7114 159.0641,260.7364 161.6331,261.6154 C161.8811,261.6984 161.5831,262.6034 159.8031,262.1904 C154.5061,260.9634 149.3321,258.8404 143.9951,256.1334 C139.5371,253.8724 133.7531,250.3594 131.3071,248.4984 C129.3351,246.9994 129.8901,246.7114 132.3031,247.9544" id="Fill-14" fill="#000" blush:i="0.2.0.2.0.5"/></g></g><g id="Expressions" transform="translate(520.000000, 159.000000) scale(1 1)" blush:width="120" blush:height="120" blush:component="Expressions" blush:i="0.2.0.3" blush:value="Relaxed" blush:viewBox="22.799999999999997 15.599999999999994 85.80000000000001 91.80000000000001"><g id="Expressions/Relaxed" stroke="none" stroke-width="1" fill="none" fill-rule="evenodd" blush:viewBox="22.799999999999997 15.599999999999994 85.80000000000001 91.80000000000001" blush:i="0.2.0.3.0"><path d="M93.917,85.9779 C78.288,85.3499 67.34,84.9099 56.819,84.4879 C53.549,84.3559 50.673,90.0739 56.294,97.5689 C64.259,108.1889 84.891,111.8759 93.281,99.0539 C97.555,92.5239 97.31,86.1149 93.917,85.9779" id="Fill-1" fill="#FFF" blush:i="0.2.0.3.0.0"/><path d="M82.7872,55.7084 C86.8282,59.4834 96.9612,74.6464 87.8282,76.8394 C85.9422,77.2914 77.3212,77.5114 78.5922,75.6374 C79.6052,74.1434 85.9772,75.0244 86.8982,72.1854 C88.1082,68.4554 83.7122,61.1524 80.9722,56.1434 C80.5012,55.2804 82.1522,54.9674 82.7872,55.7084" id="nose" fill="#090E2B" blush:i="0.2.0.3.0.1"/><path d="M63.2787643,47.5005595 C63.8977643,55.1465595 54.2727643,60.0135595 46.1077643,56.1935595 C41.9017643,54.2275595 39.7587643,51.2665595 40.7837643,50.0295595 C41.4397643,49.2375595 43.3107643,50.3635595 43.9337643,50.7335595 C52.2097643,55.6545595 58.7657643,51.2125595 60.7667643,46.8055595 C61.5487643,45.0855595 63.0797643,45.0435595 63.2787643,47.5005595 Z M104.514164,42.1987595 C103.866164,45.3027595 102.660164,46.8727595 101.140164,47.9767595 C96.7091643,51.1937595 89.4801643,47.9737595 88.0981643,45.0087595 C87.0641643,42.7917595 88.5051643,42.7377595 90.1931643,43.7887595 C92.8701643,45.4587595 95.4171643,45.8007595 97.1021643,45.4817595 C100.340164,44.8707595 101.879164,41.6127595 103.045164,40.2707595 C103.679164,39.5417595 105.019164,39.7827595 104.514164,42.1987595 Z" id="eye" fill="#090E2B" transform="translate(72.577838, 48.716394) rotate(3.000000) translate(-72.577838, -48.716394)" blush:i="0.2.0.3.0.2"/><path d="M62.79355,24.2519929 C66.09155,27.4989929 65.39755,33.0019929 61.13355,31.9079929 C49.32655,25.7259929 38.64055,24.0389929 28.38555,32.9259929 C24.70055,36.1199929 22.78655,33.4669929 23.96555,30.1789929 C24.80555,27.8369929 28.41655,23.5259929 31.44155,21.8919929 C41.35255,16.5349929 55.59955,17.1699929 62.79355,24.2519929 Z M106.56795,16.9292929 C108.41995,18.3412929 109.65195,21.1502929 106.65095,21.9192929 C105.57695,22.1952929 94.27495,18.5422929 86.72495,27.4442929 C85.02995,29.4432929 81.19395,28.9722929 81.57395,25.6042929 C82.55195,16.9622929 97.18895,9.78229286 106.56795,16.9292929 Z" id="eybrow" fill="#090E2B" transform="translate(66.040205, 24.189369) rotate(3.000000) translate(-66.040205, -24.189369)" blush:i="0.2.0.3.0.3"/></g></g><g id="Facial Accesories" transform="translate(517.000000, 209.000000) scale(1 1)" fill="#000" blush:width="120" blush:height="110" blush:component="Facial Accesories" blush:i="0.2.0.4" blush:value="None" blush:viewBox="210 192.5 0 0"><g id="Facial Accesories/None" stroke="none" stroke-width="1" fill="none" fill-rule="evenodd" fill-opacity="0" blush:viewBox="210 192.5 0 0" blush:i="0.2.0.4.0"/></g><g id="Glass" transform="translate(520.000000, 164.000000) scale(1 1)" fill="#000" blush:width="120" blush:height="75" blush:component="Glass" blush:i="0.2.0.5" blush:value="None" blush:viewBox="210 131.25 0 0"><g id="Glass/None" stroke="none" stroke-width="1" fill="none" fill-rule="evenodd" fill-opacity="0" blush:viewBox="210 131.25 0 0" blush:i="0.2.0.5.0"/></g></g></g></g></svg>